# xmcd CD database file
#
# Track frame offsets:
#	150
#	1451
#	13326
#	30395
#	40100
#	46013
#	48226
#	52238
#	56675
#	62783
#	64663
#	66746
#	70176
#	74686
#	80638
#	89701
#	100401
#	106351
#	112033
#	115721
#	121076
#	126958
#	133141
#	140726
#	148063
#	187351
#	192251
#	196113
#	200126
#	207251
#	210626
#	216851
#	221463
#	227101
#	229126
#	237976
#	246176
#	249101
#	252551
#	255338
#	262388
#	264426
#
# Disc length: 3585 seconds
#
# Revision: 9
# Processed by: cddbd v1.4PL0 Copyright (c) Steve Scherf et al.
# Submitted via: CDex 1.50Beta7
#
DISCID=a00dff2a
DTITLE=Andreas Müller - SWR3 alles Müller Der SWR Großimitator auf CD
DYEAR=2001
DGENRE=Speech
TTITLE0=Seitenlacher
TTITLE1=Müll(er) Pur
TTITLE2=Intro LIVE
TTITLE3=Arnie: "Kamel im Nadelöhr"
TTITLE4=Lafer: "Österreichisch"
TTITLE5=Alaaf Parade
TTITLE6=Reisbrei
TTITLE7=Sting - "Alle meine Entchen"
TTITLE8=Reformhaus Schröder - "Mobbing"
TTITLE9=Freitag
TTITLE10=Houston, MIR haben ... "Mond"
TTITLE11=Bahnauskunft
TTITLE12=Curry- oder Weißwurst
TTITLE13=Du Ditscherie
TTITLE14=AC/DC: "AD/AC"
TTITLE15=Weinkenner-ABC
TTITLE16=Heck übt mit Michelle
TTITLE17=Arnie:"Martin Schmitt"
TTITLE18=Luder des Jahres
TTITLE19=Rapdepp: "Doitchrepper"
TTITLE20=Lafer: "Klimakipferl"
TTITLE21=Schilys scharfe Schoten
TTITLE22=Feinkost Zipp - "Hundefutter"
TTITLE23=Gitarrenkurs mit Angus
TTITLE24=Mir Badner LIVE
TTITLE25=Elvis: "Memphis" (Song für Ötzwurst und Osterwelle)
TTITLE26=Houston, MIR haben ... "Krallenfroschkaulquappen"
TTITLE27=Klinsis Trainerprüfung
TTITLE28=Reimhart May: "Musikwunsch" LIVE
TTITLE29=Klitschkos Geburtstag
TTITLE30=Radio Volles Rohr :"Truppenbetreuung"
TTITLE31=Nobby und Bio kochen Buletten
TTITLE32=Erwin und Gerd: "Schofseckl"
TTITLE33=Paff-Parade
TTITLE34=Naddel und Diedä LIVE
TTITLE35=Herbie: "Ich schrei dich nicht an"
TTITLE36=Pisa Studie
TTITLE37=Reisbrei und Kohl
TTITLE38=Houston, MIR haben ... "Lufttanks"
TTITLE39=Reformhaus Schröder LIVE
TTITLE40=Steffi-Graf-Parade
TTITLE41=Zum Geburtstag von Sting und Naidoo
EXTD=YEAR: 2001
EXTT0=
EXTT1=
EXTT2=
EXTT3=
EXTT4=
EXTT5=
EXTT6=
EXTT7=
EXTT8=
EXTT9=
EXTT10=
EXTT11=
EXTT12=
EXTT13=
EXTT14=
EXTT15=
EXTT16=
EXTT17=
EXTT18=
EXTT19=
EXTT20=
EXTT21=
EXTT22=
EXTT23=
EXTT24=
EXTT25=
EXTT26=
EXTT27=
EXTT28=
EXTT29=
EXTT30=
EXTT31=
EXTT32=
EXTT33=
EXTT34=
EXTT35=
EXTT36=
EXTT37=
EXTT38=
EXTT39=
EXTT40=
EXTT41=
PLAYORDER=
